<svg xmlns="http://www.w3.org/2000/svg" xmlns:xlink="http://www.w3.org/1999/xlink" viewBox="0,0,256,256" width="50px" height="50px" fill-rule="nonzero"><g fill="#ffffff" fill-rule="nonzero" stroke="none" stroke-width="1" stroke-linecap="butt" stroke-linejoin="miter" stroke-miterlimit="10" stroke-dasharray="" stroke-dashoffset="0" font-family="none" font-weight="none" font-size="none" text-anchor="none" style="mix-blend-mode: normal"><g transform="scale(5.12,5.12)"><path d="M37,0c-1.25,0 -2.31477,0.50476 -2.99805,1.27344c-0.68327,0.76868 -1.00195,1.75434 -1.00195,2.72656c0,0.97222 0.31868,1.95788 1.00195,2.72656c0.68327,0.76868 1.74805,1.27344 2.99805,1.27344c1.25,0 2.31477,-0.50476 2.99805,-1.27344c0.68327,-0.76868 1.00195,-1.75434 1.00195,-2.72656c0,-0.97222 -0.31868,-1.95788 -1.00195,-2.72656c-0.68327,-0.76868 -1.74805,-1.27344 -2.99805,-1.27344zM37,2c0.75,0 1.18523,0.24524 1.50195,0.60156c0.31673,0.35632 0.49805,0.87066 0.49805,1.39844c0,0.52778 -0.18132,1.04212 -0.49805,1.39844c-0.31673,0.35632 -0.75195,0.60156 -1.50195,0.60156c-0.75,0 -1.18523,-0.24524 -1.50195,-0.60156c-0.31673,-0.35632 -0.49805,-0.87066 -0.49805,-1.39844c0,-0.52778 0.18132,-1.04212 0.49805,-1.39844c0.31673,-0.35632 0.75195,-0.60156 1.50195,-0.60156zM9.5,3c-1.08333,0 -2.02311,0.44226 -2.62305,1.11719c-0.59994,0.67493 -0.87695,1.53559 -0.87695,2.38281c0,0.84722 0.27701,1.70788 0.87695,2.38281c0.59994,0.67493 1.53971,1.11719 2.62305,1.11719c1.08333,0 2.02311,-0.44226 2.62305,-1.11719c0.59994,-0.67493 0.87695,-1.53559 0.87695,-2.38281c0,-0.84722 -0.27701,-1.70788 -0.87695,-2.38281c-0.59994,-0.67493 -1.53971,-1.11719 -2.62305,-1.11719zM9.5,5c0.58333,0 0.89356,0.18274 1.12695,0.44531c0.23339,0.26257 0.37305,0.65191 0.37305,1.05469c0,0.40278 -0.13965,0.79212 -0.37305,1.05469c-0.23339,0.26257 -0.54362,0.44531 -1.12695,0.44531c-0.58333,0 -0.89356,-0.18274 -1.12695,-0.44531c-0.23339,-0.26257 -0.37305,-0.65191 -0.37305,-1.05469c0,-0.40278 0.13965,-0.79212 0.37305,-1.05469c0.23339,-0.26257 0.54362,-0.44531 1.12695,-0.44531zM25,6.95313c-7.74238,0 -14.34821,4.85084 -16.93555,11.66602c-0.17,0.44504 -0.00247,0.94821 0.40037,1.20254c0.40284,0.25432 0.92915,0.18919 1.25784,-0.15566c2.99661,-3.13445 8.69875,-5.39258 15.27734,-5.39258c6.57859,0 12.28073,2.25812 15.27734,5.39258c0.32862,0.34355 0.85368,0.40828 1.25589,0.15482c0.40222,-0.25346 0.57041,-0.75504 0.40231,-1.19974c-2.58732,-6.8162 -9.19326,-11.66797 -16.93555,-11.66797zM25,8.95313c5.29549,0 9.93789,2.56514 12.86914,6.47852c-3.4716,-1.96222 -7.92985,-3.1582 -12.86914,-3.1582c-4.93929,0 -9.39754,1.19599 -12.86914,3.1582c2.93128,-3.91322 7.57372,-6.47852 12.86914,-6.47852zM9.00781,29.97852c-0.33031,-0.00282 -0.64071,0.15764 -0.82941,0.42877c-0.18869,0.27113 -0.23134,0.61794 -0.11395,0.9267c2.58732,6.8162 9.19325,11.66602 16.93555,11.66602c7.74229,0 14.34823,-4.84982 16.93555,-11.66602c0.17,-0.44504 0.00247,-0.94821 -0.40037,-1.20254c-0.40284,-0.25432 -0.92915,-0.18919 -1.25784,0.15566c-2.99661,3.13445 -8.69875,5.39258 -15.27734,5.39258c-6.57859,0 -12.28073,-2.25813 -15.27734,-5.39258c-0.18681,-0.1952 -0.44466,-0.30651 -0.71484,-0.30859zM12.12891,34.51953c3.47191,1.96302 7.9307,3.16016 12.87109,3.16016c4.9404,0 9.39919,-1.19713 12.87109,-3.16016c-2.93108,3.91535 -7.57403,6.48047 -12.87109,6.48047c-5.29706,0 -9.94001,-2.56511 -12.87109,-6.48047zM11.5,41c-1.41667,0 -2.60644,0.56726 -3.37305,1.42969c-0.76661,0.86243 -1.12695,1.97309 -1.12695,3.07031c0,1.09722 0.36035,2.20788 1.12695,3.07031c0.76661,0.86243 1.95638,1.42969 3.37305,1.42969c1.41667,0 2.60644,-0.56726 3.37305,-1.42969c0.76661,-0.86243 1.12695,-1.97309 1.12695,-3.07031c0,-1.09722 -0.36035,-2.20788 -1.12695,-3.07031c-0.76661,-0.86243 -1.95638,-1.42969 -3.37305,-1.42969zM11.5,43c0.91667,0 1.47689,0.30774 1.87695,0.75781c0.40006,0.45007 0.62305,1.08941 0.62305,1.74219c0,0.65278 -0.22299,1.29212 -0.62305,1.74219c-0.40006,0.45007 -0.96029,0.75781 -1.87695,0.75781c-0.91667,0 -1.47689,-0.30774 -1.87695,-0.75781c-0.40006,-0.45007 -0.62305,-1.08941 -0.62305,-1.74219c0,-0.65278 0.22299,-1.29212 0.62305,-1.74219c0.40006,-0.45007 0.96029,-0.75781 1.87695,-0.75781z"></path></g></g></svg>